# xmcd
#
# Track frame offsets: 
#        150
#        17681
#        31913
#        47908
#        66848
#        82790
#        98204
#        116952
#        130946
#        147514
#        166990
#        185143
#        207397
#        224421
#        246255
#        264570
#        283920
#        298195
#        312884
#
# Disc length: 4396 seconds
#
# Revision: 0
# Processed by: cddbd v1.4PL0 Copyright (c) Steve Scherf et al.
# Submitted via: ExactAudioCopy v0.95a3
#
DISCID=2f112a13
DTITLE=未知艺术家 - Platinum
DYEAR=2003
DGENRE=Punk Rock
TTITLE0=Round Round
TTITLE1=Jenny Form The Block
TTITLE2=All The Things She Said
TTITLE3=Die Another Day
TTITLE4=The ketchup Song
TTITLE5=One Love
TTITLE6=The Game Of Love 
TTITLE7=Don't Know Why
TTITLE8=Sorry Seems to Be The Hardest Word
TTITLE9=Through The Rain
TTITLE10=Beautiful
TTITLE11=Family Portrait
TTITLE12=Cry
TTITLE13=Cry Me A River
TTITLE14=Skin On Skin
TTITLE15=All i Have 
TTITLE16=The Last Goodbye
TTITLE17=Maybe
TTITLE18=I'm With You
EXTD=
EXTT0=
EXTT1=
EXTT2=
EXTT3=
EXTT4=
EXTT5=
EXTT6=
EXTT7=
EXTT8=
EXTT9=
EXTT10=
EXTT11=
EXTT12=
EXTT13=
EXTT14=
EXTT15=
EXTT16=
EXTT17=
EXTT18=
PLAYORDER=
